<?xml version="1.0" standalone="no"?>
<!DOCTYPE svg PUBLIC "-//W3C//DTD SVG 20010904//EN"
 "http://www.w3.org/TR/2001/REC-SVG-20010904/DTD/svg10.dtd">
<svg version="1.0" xmlns="http://www.w3.org/2000/svg"
 width="400.000000pt" height="400.000000pt" viewBox="0 0 488.48306 368.11215"
 preserveAspectRatio="xMidYMid meet">
  <path
     id="telefone"
     d="m 96.63002,2.0336627 c -24.875,5.375 -46.625,16.1250003 -64.125003,32.0000003 -16.5,14.875 -30.25,42.625 -32.25000004,64.625 -0.875,9.999997 1.37500004,41.374997 3.87500004,52.874997 2.375,11.25 7.75,21.625 12.5,24.625 6.875,4.125 0.75,5.75 101.250003,-26.75 25.5,-8.125 46.625,-15.25 47.125,-15.75 0.375,-0.5 2.625,-5.375 4.75,-10.875 2.125,-5.5 4.125,-10.25 4.5,-10.75 0.25,-0.5 4.625,0.75 9.5,2.875 22.875,9.25 50.375,13.5 72.75,11.125 15.5,-1.75 32.25,-5.75 46.125,-11.125 l 9.625,-3.75 2.25,5.25 c 1.25,2.75 3.625,8.25 5.125,12.125 l 3,7 46.375,14 c 25.5,7.75 57.5,17.5 71,21.75 24.5,7.5 24.75,7.625 29,5.5 11.875,-5.625 20.75,-39.5 19.25,-73.25 -0.75,-14.999997 -3.25,-23.749997 -11.375,-39.124997 -15.75,-30 -39.75,-50.25 -70,-59.0000003 -45.25,-13.125 -107.25,-1.25 -137.375,26.5000003 -12.25,11.125 -24.375,21.5 -25.375,21.5 -1.125,0 -14.625,-11.5 -21.75,-18.5 -7.625,-7.5 -14.625,-12.125 -28,-18.375 -24.125,-11.3750003 -41.5,-15.62500026 -67.75,-16.25000026 -15.125,-0.5 -20.875,-0.125 -30,1.74999996 z m 287.375,21.3750003 c 12.25,1.875 26.375,6.875 36.375,13.125 16.625,10.375 37.5,35.375 41.25,49.375 3.375,12.875 4.875,33.499997 3.25,44.374997 -1.875,12.625 -3.875,19.375 -5.75,19.375 -0.875,0 -7.375,-1.625 -14.5,-3.625 -7.125,-2 -33,-9.125 -57.375,-15.875 -32,-8.75 -45,-12.75 -46.5,-14.5 -3.375,-3.75 -2.875,-13.875 0.875,-21.624997 3.875,-8 4,-12.375 0,-16.25 -4.375,-4.375 -10,-4 -19.625,1.25 -34.125,18.75 -51.875,24.374997 -77.25,24.374997 -25.25,0 -46.5,-6.624997 -80,-24.999997 -16.625,-9.125 -28.125,-0.5 -19.375,14.625 2.75,4.625 3.125,6.625 2.875,14.374997 l -0.375,9 -38.75,11 c -69.625,19.75 -78.750003,22.25 -80.125003,22.25 -2.375,0 -5.875,-15.125 -6.5,-28.125 -1.25,-26.874997 5,-45.999997 20.875003,-64.749997 12.125,-14.5 29.5,-25.625 47,-30.375 10,-2.75 37.75,-3.75 50.875,-1.875 31.375,4.5 55.75,15.875 67.375,31.375 8.125,10.75 31.125,22.75 39.625,20.625 9.625,-2.375 17.375,-7.625 30.125,-20.625 15.75,-16 23.375,-20.125 48.25,-26.875 24.125,-6.5 40.25,-8 57.375,-5.625 z"
     style="fill:#87ffe6;fill-opacity:1;stroke:#87ffe6;stroke-width:0.125" />
  <path
     id="base"
     d="m 317.75502,149.90866 c -2,3.125 -2.875,10.625 -1.625,15 1,3.75 3,6 10.25,11.375 8.5,6.375 10.5,7.125 39,15.75 16.5,5 34.625,10.5 40.375,12.25 5.625,1.75 10.25,3.75 10.25,4.5 0,4.125 -28,37.5 -49.75,59.25 -36.375,36.125 -74.25,61.875 -107.75,72.875 -12.875,4.25 -16.875,4.375 -28.25,0.5 -39.875,-13.25 -88.5,-49.25 -129.875,-96.125 -11.5,-13 -28.125,-34.625 -28.125,-36.625 0,-1 26.75,-9.625 72.5,-23.625 13.25,-4 16.25,-5.5 20.75,-9.75 4.375,-4.125 5.375,-6.125 6.125,-11.5 1,-7.75 -0.125,-14.125 -2.5,-14.125 -1.75,0 -139.625003,41.125 -140.375003,41.875 -0.625,0.625 19.875003,27.5 34.625003,45.625 63.125,77 118.25,119 170.375,129.5 9.125,1.875 10.5,1.875 19.5,-0.125 61.125,-13.625 127.625,-67.875 193.375,-157.875 6.625,-9.25 11.875,-16.875 11.625,-17.125 -0.125,-0.125 -2.375,-0.875 -4.75,-1.625 -4.125,-1.125 -130,-39.75 -133.375,-40.875 -0.875,-0.25 -1.875,0.125 -2.375,0.875 z"
     style="fill:#87ffe6;fill-opacity:1;stroke:#87ffe6;stroke-width:0.125" />

  <path
     id="sete"
     d="m 178.75502,193.65866 c -0.875,0.875 -1.5,5.25 -1.5,11 0,5.75 0.625,10.125 1.5,11 1,1 6.375,1.5 16.125,1.5 18.125,0 18.625,-0.375 18.625,-12.5 0,-12.125 -0.5,-12.5 -18.625,-12.5 -9.75,0 -15.125,0.5 -16.125,1.5 z"
     style="fill:#87ffe6;fill-opacity:1;stroke:#87ffe6;stroke-width:0.125" />

  <path
     id="oito"
     d="m 228.38002,194.28366 c -1.125,1.25 -1.75,5.125 -1.75,10.375 0,12.25 0.375,12.5 18.125,12.5 17.75,0 18.75,-0.625 18.75,-12 0,-12.25 -1,-13 -18.625,-13 -12.25,0 -15.125,0.375 -16.5,2.125 z"
     style="fill:#87ffe6;fill-opacity:1;stroke:#87ffe6;stroke-width:0.125" />
  <path
     id="nove"
     d="m 278.50502,193.40866 c -1.25,0.75 -2,4 -2.25,10 -0.75,13.125 0,13.75 18.5,13.75 9.625,0 15,-0.5 16,-1.5 2,-2 2,-20 0,-22 -1.75,-1.75 -29.375,-2.125 -32.25,-0.25 z"
     style="fill:#87ffe6;fill-opacity:1;stroke:#87ffe6;stroke-width:0.125" />

  <path
     id="quatro"
     d="m 179.25502,231.65866 c -1.5,1.375 -2,4.375 -2,11.125 0,12.375 1.125,13.125 18.375,13.125 16.5,0 17.875,-1 17.875,-13.5 0,-12.125 -0.875,-12.75 -18.5,-12.75 -10.875,0 -14.25,0.375 -15.75,2 z"
     style="fill:#87ffe6;fill-opacity:1;stroke:#87ffe6;stroke-width:0.125" />
  <path
     id="cinco"
     d="m 229.13002,231.40866 c -1.75,1.25 -2.5,3.75 -2.875,9.875 -0.5,7.5 -0.25,8.5 2.625,11.375 3.125,3.125 4,3.25 16.5,3.25 16.875,0 18.125,-1 18.125,-13.625 0,-11.875 -1.25,-12.625 -18.75,-12.625 -9.375,0 -14,0.5 -15.625,1.75 z"
     style="fill:#87ffe6;fill-opacity:1;stroke:#87ffe6;stroke-width:0.125" />
  <path
     id="seis"
     d="m 278.00502,232.40866 c -1.375,1.875 -2,5.625 -2,10.625 0,11.875 1.5,12.875 18.5,12.875 17,0 17.75,-0.5 17.875,-13.75 0.25,-12.125 -0.25,-12.5 -18.375,-12.5 -13.125,0 -14.25,0.125 -16,2.75 z"
     style="fill:#87ffe6;fill-opacity:1;stroke:#87ffe6;stroke-width:0.125" />

  <path
     id="um_c"
     d="m 179.88002,269.15866 c -2.25,1.625 -2.625,3.125 -2.625,10.625 0,13.625 -0.125,13.625 17.5,13.625 18.25,0 18.75,-0.375 18.75,-12.5 0,-8.875 -1.625,-12.5 -6,-12.5 -1.125,-0.125 -7.25,-0.375 -13.5,-0.625 -8.75,-0.375 -12,0 -14.125,1.375 z"
     style="fill:#87ffe6;fill-opacity:1;stroke:#87ffe6;stroke-width:0.125" />
  <path
     id="dois_v"
     d="m 231.38002,268.53366 c -4.125,1.5 -5.75,5.625 -5.125,13.75 0.75,10.75 1.375,11.125 18.375,11.125 8,0 15.375,-0.625 16.375,-1.25 1.25,-0.75 2,-3.875 2.25,-10.25 0.625,-13.25 0,-13.75 -16.125,-14.125 -7.25,-0.125 -14.25,0.25 -15.75,0.75 z"
     style="fill:#87ffe6;fill-opacity:1;stroke:#87ffe6;stroke-width:0.125" />
  <path
     id="tres_v"
     d="m 280.00502,268.90866 c -3.375,1.875 -4,3.5 -4,11.375 0,12.375 1,13.125 18.625,13.125 11.75,0 15.125,-0.375 16.375,-1.875 2,-2.5 1.75,-19.375 -0.375,-21.5 -1.875,-1.875 -27.625,-2.75 -30.625,-1.125 z"
     style="fill:#87ffe6;fill-opacity:1;stroke:#87ffe6;stroke-width:0.125" />

</svg>
